<!DOCTYPE svg PUBLIC "-//W3C//DTD SVG 1.1//EN" "http://www.w3.org/Graphics/SVG/1.1/DTD/svg11.dtd">
<!-- Uploaded to: SVG Repo, www.svgrepo.com, Transformed by: SVG Repo Mixer Tools -->
<svg fill="#facc15" height="800px" width="800px" version="1.1" id="Capa_1" xmlns="http://www.w3.org/2000/svg" xmlns:xlink="http://www.w3.org/1999/xlink" viewBox="0 0 463 463" xml:space="preserve" stroke="#facc15">
<g id="SVGRepo_bgCarrier" stroke-width="0"/>
<g id="SVGRepo_tracerCarrier" stroke-linecap="round" stroke-linejoin="round"/>
<g id="SVGRepo_iconCarrier"> <path d="M388.919,0H74.081c-12.958,0-23.5,10.542-23.5,23.5v416c0,12.958,10.542,23.5,23.5,23.5h314.838 c12.958,0,23.5-10.542,23.5-23.5v-416C412.419,10.542,401.877,0,388.919,0z M126.35,272.969 c7.609-15.419,11.467-39.679,11.467-72.105v-26.471c0-52.03,42.026-94.36,93.683-94.36c51.657,0,93.683,42.33,93.683,94.36v26.471 c0,32.429,3.859,56.676,11.47,72.066c1.667,3.371,3.386,6.047,5.052,8.17c-6.089,3.089-16.408,6.742-31.893,7.519 c-26.937-0.211-33.708-14.19-34.328-26.758c21.539-14.296,35.774-38.757,35.774-66.489V167.06c0-11.428-6.147-20.372-17.309-25.184 c-35.81-15.435-124.414,12.372-139.856,26.957c-1.5,1.417-2.351,3.389-2.351,5.453v21.086c0,27.858,14.367,52.411,36.07,66.679 c-1.147,21.766-19.285,26.513-34.689,26.564c-13.232-0.699-22.65-3.571-28.464-6.032c-1.203-0.509-2.299-1.02-3.29-1.516 C123.012,278.953,124.707,276.299,126.35,272.969z M231.5,260.129c-35.708,0-64.758-29.05-64.758-64.758v-17.384 c7.451-4.759,27.254-12.937,52.729-19.125c30.433-7.393,56.057-8.593,68.541-3.211c5.781,2.492,8.247,5.904,8.247,11.409v28.312 C296.258,231.079,267.208,260.129,231.5,260.129z M201.922,269.419c9.153,3.669,19.129,5.71,29.578,5.71 c10.537,0,20.594-2.073,29.81-5.802c1.161,6.113,3.689,12.867,8.811,18.9c5.788,6.818,13.761,11.38,23.784,13.671 c-13.948,33.402-51.7,53.313-62.411,58.403c-10.716-5.072-48.377-24.883-62.366-58.319 C192.259,296.886,199.658,280.913,201.922,269.419z M228.631,375.463c1.837,0.761,3.9,0.761,5.736,0 c0.631-0.261,15.639-6.535,32.513-18.956c20.667-15.212,35.149-33.156,42.206-52.204c25.614,2.629,44.978,24.06,44.978,50.942V448 h-28.354v-50.306c0-4.142-3.358-7.5-7.5-7.5s-7.5,3.358-7.5,7.5V448H152.29v-50.306c0-4.142-3.358-7.5-7.5-7.5s-7.5,3.358-7.5,7.5 V448h-28.354v-92.753c0-26.881,19.358-48.311,44.97-50.942C171.164,351.206,226.206,374.46,228.631,375.463z M397.419,439.5 c0,4.687-3.813,8.5-8.5,8.5h-19.855v-92.753c0-24.229-12.22-45.025-30.884-56.556c14.33-4.761,20.825-11.209,21.244-11.636 c1.873-1.912,2.586-4.677,1.87-7.256c-0.663-2.388-2.458-4.281-4.776-5.082c-1.104-0.627-16.335-10.5-16.335-73.852v-26.471 c0-60.301-48.755-109.36-108.683-109.36c-59.928,0-108.683,49.059-108.683,109.36v26.471c0,63.401-15.258,73.322-16.359,73.95 c-2.346,0.819-4.149,2.757-4.783,5.186c-0.684,2.62,0.098,5.404,2.044,7.286c0.433,0.418,7.083,6.677,21.168,11.361 c-18.702,11.522-30.951,32.341-30.951,56.6V448H74.081c-4.687,0-8.5-3.813-8.5-8.5v-416c0-4.687,3.813-8.5,8.5-8.5h314.838 c4.687,0,8.5,3.813,8.5,8.5V439.5z"/> </g>
</svg>